<svg width="2455" height="2860" viewBox="0 0 2455 2860" fill="none" xmlns="http://www.w3.org/2000/svg">
<path fill-rule="evenodd" clip-rule="evenodd" d="M710.374 1606.25C721.174 1889.02 935.115 2102.3 1217.22 2112.42C1498.66 2102.3 1714.61 1889.02 1724.75 1606.25C1715.96 1373.41 1633.63 1349.79 1548.6 1210.76C1431.83 1019.1 1545.9 738.329 1794.94 738.329C2043.29 738.329 2157.35 1018.42 2040.59 1210.09C1956.23 1348.44 1873.23 1372.74 1865.11 1606.25C1873.23 1840.43 1956.23 1864.05 2040.59 2003.09C2081.76 2069.92 2093.9 2148.2 2082.44 2221.09C2075.7 2276.43 2054.1 2324.35 2023.06 2362.81C1972.44 2429.63 1894.81 2474.85 1794.94 2474.85C1792.22 2474.85 1790.2 2474.18 1788.18 2474.18C1726.67 2476.37 1665.87 2460.4 1613.38 2428.27C1475.03 2343.9 1450.74 2260.89 1217.22 2252.8C983.033 2260.89 959.411 2343.9 820.382 2428.27C767.055 2461.34 706.325 2475.52 646.93 2474.18C644.909 2474.18 642.885 2474.85 640.851 2474.85C553.799 2474.85 482.932 2440.42 433.664 2387.1C382.371 2337.83 349.297 2268.31 349.297 2182.61V2181.94C346.597 2120.54 360.772 2057.76 394.522 2002.42C479.559 1863.38 561.892 1839.78 570.669 1606.24C561.892 1373.41 479.559 1349.79 394.522 1210.76C277.765 1019.09 391.822 738.326 640.851 738.326C889.215 738.326 1003.27 1018.42 886.52 1210.08C802.153 1348.44 719.149 1372.74 710.373 1606.24L710.374 1606.25ZM517.353 2186.66C517.327 2170.08 520.574 2153.66 526.907 2138.33C533.24 2123.01 542.535 2109.08 554.26 2097.36C565.985 2085.64 579.908 2076.34 595.232 2070.01C610.557 2063.67 626.98 2060.43 643.561 2060.45C713.068 2060.45 769.09 2117.14 769.09 2186.66C769.09 2256.85 713.068 2312.86 643.561 2312.86C626.965 2312.94 610.516 2309.74 595.167 2303.42C579.818 2297.11 565.872 2287.82 554.136 2276.08C542.4 2264.35 533.107 2250.4 526.793 2235.05C520.479 2219.71 517.271 2203.26 517.353 2186.66V2186.66ZM517.353 1026.51C517.271 1009.92 520.48 993.468 526.794 978.119C533.107 962.77 542.401 948.824 554.136 937.089C565.872 925.353 579.818 916.06 595.167 909.746C610.516 903.433 626.964 900.224 643.561 900.306C713.068 900.306 769.09 956.331 769.09 1026.51C769.121 1043.01 765.896 1059.34 759.598 1074.59C753.301 1089.83 744.056 1103.68 732.393 1115.34C720.73 1127.01 706.88 1136.25 691.636 1142.55C676.392 1148.85 660.055 1152.07 643.561 1152.04C573.361 1152.04 517.353 1096.03 517.353 1026.51V1026.51ZM1666.02 1026.51C1666.02 1009.94 1669.28 993.528 1675.62 978.216C1681.97 962.904 1691.26 948.991 1702.98 937.272C1714.7 925.552 1728.61 916.256 1743.93 909.914C1759.24 903.571 1775.65 900.307 1792.22 900.307C1808.8 900.307 1825.21 903.571 1840.52 909.914C1855.83 916.256 1869.74 925.552 1881.46 937.272C1893.18 948.991 1902.48 962.904 1908.82 978.216C1915.16 993.528 1918.43 1009.94 1918.43 1026.51C1918.43 1096.03 1861.74 1152.04 1792.22 1152.04C1722.72 1152.04 1666.02 1096.03 1666.02 1026.51ZM1666.02 2186.66C1666.02 2117.14 1722.73 2060.45 1792.22 2060.45C1861.74 2060.45 1918.43 2117.14 1918.43 2186.66C1918.43 2220.13 1905.13 2252.23 1881.46 2275.9C1857.8 2299.57 1825.69 2312.87 1792.22 2312.87C1758.75 2312.87 1726.65 2299.57 1702.98 2275.9C1679.31 2252.23 1666.02 2220.13 1666.02 2186.66Z" fill="#EA2039"/>
<path fill-rule="evenodd" clip-rule="evenodd" d="M0.383057 1606.25C0.383057 1481.39 102.294 1380.16 227.148 1380.16C352.681 1380.16 453.914 1481.39 453.914 1606.25C453.963 1636.04 448.132 1665.55 436.753 1693.09C425.375 1720.62 408.673 1745.64 387.606 1766.71C366.539 1787.77 341.521 1804.47 313.986 1815.85C286.451 1827.23 256.941 1833.06 227.148 1833.01C102.294 1833.01 0.383057 1731.78 0.383057 1606.25V1606.25ZM2001.46 1606.25C2001.46 1481.39 2103.36 1380.16 2228.22 1380.16C2353.75 1380.16 2454.99 1481.39 2454.99 1606.25C2455.04 1636.04 2449.2 1665.55 2437.83 1693.09C2426.45 1720.62 2409.75 1745.64 2388.68 1766.71C2367.61 1787.77 2342.59 1804.47 2315.06 1815.85C2287.52 1827.23 2258.01 1833.06 2228.22 1833.01C2103.36 1833.01 2001.46 1731.78 2001.46 1606.25ZM991.127 2632.77C991.077 2602.98 996.909 2573.47 1008.29 2545.94C1019.67 2518.4 1036.37 2493.38 1057.43 2472.32C1078.5 2451.25 1103.52 2434.55 1131.05 2423.17C1158.59 2411.79 1188.1 2405.96 1217.89 2406.01C1342.76 2406.01 1444.67 2507.24 1444.67 2632.77C1444.67 2757.63 1342.76 2859.54 1217.89 2859.54C1092.36 2859.54 991.127 2757.63 991.127 2632.77Z" fill="#EA2039"/>
<path fill-rule="evenodd" clip-rule="evenodd" d="M839.276 0H1595.84C1635.65 0 1669.41 28.341 1676.83 65.463H758.293C766.381 28.341 799.459 0 839.276 0ZM1217.89 1498.95C1232.79 1498.92 1247.54 1501.84 1261.31 1507.53C1275.08 1513.22 1287.59 1521.57 1298.12 1532.1C1308.65 1542.64 1317 1555.14 1322.69 1568.91C1328.38 1582.68 1331.3 1597.43 1331.27 1612.33C1331.27 1675.77 1280.66 1726.39 1217.89 1726.39C1202.91 1726.41 1188.07 1723.47 1174.22 1717.74C1160.38 1712.02 1147.79 1703.62 1137.2 1693.02C1126.61 1682.43 1118.2 1669.85 1112.48 1656C1106.75 1642.15 1103.82 1627.31 1103.84 1612.33C1103.84 1549.56 1155.13 1498.95 1217.89 1498.95ZM1355.57 1306.59C1472.34 1359.24 1553.32 1476.67 1553.32 1612.33C1553.32 1797.92 1402.82 1948.43 1217.89 1948.43C1032.29 1948.43 881.802 1797.92 881.802 1612.33C881.802 1476.67 963.457 1359.24 1079.54 1306.59V553.414H839.276C799.459 553.414 766.381 525.062 758.293 487.955H1676.83C1669.41 525.062 1635.65 553.414 1595.84 553.414H1355.57V1306.59ZM1230.71 1407.83H1204.39C1097.77 1415.26 1012.73 1503.67 1012.73 1612.33C1012.71 1639.27 1018.01 1665.96 1028.32 1690.85C1038.62 1715.75 1053.74 1738.37 1072.79 1757.43C1091.84 1776.48 1114.47 1791.59 1139.36 1801.9C1164.26 1812.21 1190.95 1817.5 1217.89 1817.49C1330.6 1817.49 1422.39 1725.71 1422.39 1612.33C1422.39 1503.66 1338.02 1415.25 1230.71 1407.83H1230.71ZM1217.89 143.073C1291.47 143.073 1351.52 203.143 1351.52 276.709C1351.52 350.946 1291.47 411.009 1217.89 411.009C1200.25 411.021 1182.78 407.556 1166.48 400.811C1150.18 394.066 1135.37 384.174 1122.9 371.7C1110.43 359.227 1100.54 344.417 1093.79 328.118C1087.05 311.818 1083.58 294.349 1083.59 276.709C1083.59 203.143 1143.65 143.073 1217.89 143.073ZM1678.85 83.692V100.558H756.269V83.692H1678.85ZM1678.85 118.101V435.3H756.269V118.1L1678.85 118.101ZM1678.85 452.856V470.4H756.269V452.856H1678.85Z" fill="#222222"/>
</svg>
